<svg width="19" height="15" viewBox="0 0 19 15" fill="none" xmlns="http://www.w3.org/2000/svg">
<path d="M18.6289 5.46289C17.7754 6.13086 16.6992 6.94727 12.9141 9.69336C12.1719 10.25 10.7988 11.4746 9.5 11.4746C8.16406 11.4746 6.82812 10.25 6.04883 9.69336C2.26367 6.94727 1.1875 6.13086 0.333984 5.46289C0.185547 5.35156 0 5.46289 0 5.64844V13.2188C0 14.2207 0.779297 15 1.78125 15H17.2188C18.1836 15 19 14.2207 19 13.2188V5.64844C19 5.46289 18.7773 5.35156 18.6289 5.46289ZM9.5 10.25C10.3535 10.2871 11.5781 9.17383 12.209 8.72852C17.1445 5.16602 17.5156 4.83203 18.6289 3.94141C18.8516 3.79297 19 3.5332 19 3.23633V2.53125C19 1.56641 18.1836 0.75 17.2188 0.75H1.78125C0.779297 0.75 0 1.56641 0 2.53125V3.23633C0 3.5332 0.111328 3.79297 0.333984 3.94141C1.44727 4.83203 1.81836 5.16602 6.75391 8.72852C7.38477 9.17383 8.60938 10.2871 9.5 10.25Z" fill="black"/>
</svg>
