<svg width="36" height="32" viewBox="0 0 36 32" fill="none" xmlns="http://www.w3.org/2000/svg">
<path d="M10.5 13.1429V18.8571C10.5 19.8039 9.74447 20.5714 8.81248 20.5714H1.6875C0.755508 20.5714 0 19.8039 0 18.8571V13.1429C0 12.1961 0.755508 11.4286 1.6875 11.4286H8.81248C9.74447 11.4286 10.5 12.1961 10.5 13.1429ZM0 24.5714V30.2857C0 31.2325 0.755508 32 1.6875 32H8.81248C9.74447 32 10.5 31.2325 10.5 30.2857V24.5714C10.5 23.6246 9.74447 22.8571 8.81248 22.8571H1.6875C0.755508 22.8571 0 23.6246 0 24.5714ZM8.81248 0H1.6875C0.755508 0 0 0.7675 0 1.71429V7.42857C0 8.37536 0.755508 9.14286 1.6875 9.14286H8.81248C9.74447 9.14286 10.5 8.37536 10.5 7.42857V1.71429C10.5 0.7675 9.74447 0 8.81248 0ZM14.4375 32H34.3125C35.2445 32 36 31.2325 36 30.2857V24.5714C36 23.6246 35.2445 22.8571 34.3125 22.8571H14.4375C13.5055 22.8571 12.75 23.6246 12.75 24.5714V30.2857C12.75 31.2325 13.5055 32 14.4375 32ZM12.75 1.71429V7.42857C12.75 8.37536 13.5055 9.14286 14.4375 9.14286H34.3125C35.2445 9.14286 36 8.37536 36 7.42857V1.71429C36 0.7675 35.2445 0 34.3125 0H14.4375C13.5055 0 12.75 0.7675 12.75 1.71429ZM14.4375 20.5714H34.3125C35.2445 20.5714 36 19.8039 36 18.8571V13.1429C36 12.1961 35.2445 11.4286 34.3125 11.4286H14.4375C13.5055 11.4286 12.75 12.1961 12.75 13.1429V18.8571C12.75 19.8039 13.5055 20.5714 14.4375 20.5714Z" fill="#0F253A"/>
</svg>
