<svg width="43" height="30" viewBox="0 0 43 30" fill="none" xmlns="http://www.w3.org/2000/svg">
<path d="M6.45 12.875C8.82172 12.875 10.75 10.9691 10.75 8.625C10.75 6.28086 8.82172 4.375 6.45 4.375C4.07828 4.375 2.15 6.28086 2.15 8.625C2.15 10.9691 4.07828 12.875 6.45 12.875ZM36.55 12.875C38.9217 12.875 40.85 10.9691 40.85 8.625C40.85 6.28086 38.9217 4.375 36.55 4.375C34.1783 4.375 32.25 6.28086 32.25 8.625C32.25 10.9691 34.1783 12.875 36.55 12.875ZM38.7 15H34.4C33.2175 15 32.1492 15.4715 31.3698 16.2352C34.0775 17.7027 35.9991 20.3523 36.4156 23.5H40.85C42.0392 23.5 43 22.5504 43 21.375V19.25C43 16.9059 41.0717 15 38.7 15ZM21.5 15C25.6589 15 29.025 11.673 29.025 7.5625C29.025 3.45195 25.6589 0.125 21.5 0.125C17.3411 0.125 13.975 3.45195 13.975 7.5625C13.975 11.673 17.3411 15 21.5 15ZM26.66 17.125H26.1023C24.7048 17.7891 23.1528 18.1875 21.5 18.1875C19.8472 18.1875 18.3019 17.7891 16.8977 17.125H16.34C12.0669 17.125 8.6 20.5516 8.6 24.775V26.6875C8.6 28.4473 10.0445 29.875 11.825 29.875H31.175C32.9555 29.875 34.4 28.4473 34.4 26.6875V24.775C34.4 20.5516 30.9331 17.125 26.66 17.125ZM11.6302 16.2352C10.8508 15.4715 9.7825 15 8.6 15H4.3C1.92828 15 0 16.9059 0 19.25V21.375C0 22.5504 0.960781 23.5 2.15 23.5H6.57766C7.00094 20.3523 8.9225 17.7027 11.6302 16.2352Z" fill="#0F253A"/>
</svg>
